<svg width="26" height="26" viewBox="0 0 26 26" fill="none" xmlns="http://www.w3.org/2000/svg">
<path d="M10.9474 23.9474C10.9474 24.4918 11.1636 25.0139 11.5486 25.3988C11.9335 25.7837 12.4556 26 13 26C13.5444 26 14.0665 25.7837 14.4514 25.3988C14.8364 25.0139 15.0526 24.4918 15.0526 23.9474V15.0526H23.9474C24.4918 15.0526 25.0139 14.8364 25.3988 14.4514C25.7837 14.0665 26 13.5444 26 13C26 12.4556 25.7837 11.9335 25.3988 11.5486C25.0139 11.1636 24.4918 10.9474 23.9474 10.9474H15.0526V2.05263C15.0526 1.50824 14.8364 0.986145 14.4514 0.601202C14.0665 0.216259 13.5444 0 13 0C12.4556 0 11.9335 0.216259 11.5486 0.601202C11.1636 0.986145 10.9474 1.50824 10.9474 2.05263V10.9474H2.05263C1.50824 10.9474 0.986145 11.1636 0.601202 11.5486C0.216259 11.9335 0 12.4556 0 13C0 13.5444 0.216259 14.0665 0.601202 14.4514C0.986145 14.8364 1.50824 15.0526 2.05263 15.0526H10.9474V23.9474Z" fill="#62687E"/>
</svg>
