<svg width="27" height="26" viewBox="0 0 27 26" fill="none" xmlns="http://www.w3.org/2000/svg">
<path d="M19.0575 19.6625L18.505 19.11C18.31 18.915 18.0773 18.8175 17.8069 18.8175C17.5365 18.8175 17.3034 18.915 17.1075 19.11C16.9116 19.305 16.8141 19.5325 16.815 19.7925C16.8159 20.0525 16.9134 20.28 17.1075 20.475L18.375 21.7425C18.57 21.9375 18.7975 22.035 19.0575 22.035C19.3175 22.035 19.545 21.9375 19.74 21.7425L22.8925 18.655C23.0875 18.46 23.185 18.2269 23.185 17.9556C23.185 17.6843 23.0875 17.4516 22.8925 17.2575C22.6975 17.0634 22.4644 16.9659 22.1931 16.965C21.9218 16.9641 21.6891 17.0616 21.495 17.2575L19.0575 19.6625ZM18.7 7.8C19.0683 7.8 19.3773 7.6752 19.6269 7.4256C19.8765 7.176 20.0009 6.86747 20 6.5C19.9991 6.13253 19.8743 5.824 19.6256 5.5744C19.3769 5.3248 19.0683 5.2 18.7 5.2H5.7C5.33167 5.2 5.02313 5.3248 4.7744 5.5744C4.52567 5.824 4.40087 6.13253 4.4 6.5C4.39913 6.86747 4.52393 7.17643 4.7744 7.4269C5.02487 7.67737 5.3334 7.80173 5.7 7.8H18.7ZM20 26C18.2017 26 16.669 25.366 15.4019 24.0981C14.1348 22.8302 13.5009 21.2975 13.5 19.5C13.4991 17.7025 14.1331 16.1698 15.4019 14.9019C16.6707 13.634 18.2034 13 20 13C21.7966 13 23.3297 13.634 24.5994 14.9019C25.8691 16.1698 26.5026 17.7025 26.5 19.5C26.4974 21.2975 25.8634 22.8306 24.5981 24.0994C23.3328 25.3682 21.8001 26.0017 20 26ZM0.5 24.5375V2.6C0.5 1.885 0.7548 1.27313 1.2644 0.7644C1.774 0.255667 2.38587 0.000866667 3.1 0H21.3C22.015 0 22.6273 0.2548 23.1369 0.7644C23.6465 1.274 23.9009 1.88587 23.9 2.6V9.75C23.9 10.1183 23.7483 10.4165 23.445 10.6444C23.1417 10.8723 22.8058 10.9317 22.4375 10.8225C21.8308 10.6708 21.2133 10.5625 20.585 10.4975C19.9567 10.4325 19.3283 10.4 18.7 10.4H5.7C5.33167 10.4 5.02313 10.5248 4.7744 10.7744C4.52567 11.024 4.40087 11.3325 4.4 11.7C4.39913 12.0675 4.52393 12.3764 4.7744 12.6269C5.02487 12.8774 5.3334 13.0017 5.7 13H13.63C13.2617 13.3683 12.9206 13.7692 12.6069 14.2025C12.2932 14.6358 12.0167 15.1017 11.7775 15.6H5.7C5.33167 15.6 5.02313 15.7248 4.7744 15.9744C4.52567 16.224 4.40087 16.5325 4.4 16.9C4.39913 17.2675 4.52393 17.5764 4.7744 17.8269C5.02487 18.0774 5.3334 18.2017 5.7 18.2H10.9975C10.9542 18.4167 10.9273 18.6281 10.9169 18.8344C10.9065 19.0407 10.9009 19.2625 10.9 19.5C10.9 20.0633 10.9542 20.6158 11.0625 21.1575C11.1708 21.6992 11.3117 22.2408 11.485 22.7825C11.5933 23.0208 11.55 23.2106 11.355 23.3519C11.16 23.4932 10.9758 23.4767 10.8025 23.3025L10.705 23.205C10.575 23.075 10.4233 23.01 10.25 23.01C10.0767 23.01 9.925 23.075 9.795 23.205L8.755 24.245C8.625 24.375 8.47333 24.44 8.3 24.44C8.12667 24.44 7.975 24.375 7.845 24.245L6.805 23.205C6.675 23.075 6.52333 23.01 6.35 23.01C6.17667 23.01 6.025 23.075 5.895 23.205L4.855 24.245C4.725 24.375 4.57333 24.44 4.4 24.44C4.22667 24.44 4.075 24.375 3.945 24.245L2.905 23.205C2.775 23.075 2.62333 23.01 2.45 23.01C2.27667 23.01 2.125 23.075 1.995 23.205L0.955 24.245L0.5 24.5375Z" fill="#62687E"/>
</svg>
