<svg width="34" height="32" viewBox="0 0 34 32" fill="none" xmlns="http://www.w3.org/2000/svg">
<path d="M7.74002 18.096L18.0806 28.4366C18.5027 28.8587 18.7053 29.3511 18.6884 29.9139C18.6715 30.4766 18.4513 30.969 18.0279 31.3911C17.6058 31.778 17.1134 31.9806 16.5506 31.9989C15.9879 32.0172 15.4955 31.8146 15.0734 31.3911L1.14525 17.4629C0.93422 17.2519 0.784388 17.0233 0.695754 16.7771C0.60712 16.5309 0.564211 16.2671 0.567024 15.9857C0.569838 15.7043 0.614154 15.4405 0.699974 15.1943C0.785794 14.9481 0.934925 14.7195 1.14736 14.5085L15.0755 0.580339C15.4624 0.193446 15.9464 0 16.5274 0C17.1085 0 17.6093 0.193446 18.03 0.580339C18.452 1.0024 18.6631 1.50396 18.6631 2.085C18.6631 2.66604 18.452 3.16689 18.03 3.58755L7.74002 13.8754H31.3229C31.9208 13.8754 32.4224 14.078 32.8276 14.4832C33.2328 14.8883 33.4346 15.3892 33.4332 15.9857C33.4318 16.5822 33.2292 17.0838 32.8255 17.4904C32.4217 17.897 31.9208 18.0989 31.3229 18.096H7.74002Z" fill="#62687E"/>
</svg>
