<svg width="18" height="18" viewBox="0 0 18 18" fill="none" xmlns="http://www.w3.org/2000/svg">
<path d="M5.04585 17.4093V11.0179L1.17736 14.8864L0 13.709L4.70946 8.99959L0 4.29013L1.17736 3.11277L5.04585 6.98125V0.589844H5.88682L10.6804 5.3834L7.06418 8.99959L10.6804 12.6158L5.88682 17.4093H5.04585ZM6.72779 6.98125L8.32564 5.3834L6.72779 3.82759V6.98125ZM6.72779 14.1716L8.32564 12.6158L6.72779 11.0179V14.1716Z" fill="#307756"/>
<path d="M14.6858 10.7812C12.863 10.7812 11.3716 12.2727 11.3716 14.0955C11.3716 15.9183 12.863 17.4097 14.6858 17.4097C16.5086 17.4097 18 15.9183 18 14.0955C18 12.2727 16.5086 10.7812 14.6858 10.7812ZM14.023 15.7526L12.3658 14.0955L12.8332 13.6282L14.023 14.8147L16.5385 12.2992L17.0058 12.7698L14.023 15.7526Z" fill="#307756"/>
</svg>
