<svg width="26" height="26" viewBox="0 0 26 26" fill="none" xmlns="http://www.w3.org/2000/svg">
<path d="M3.21908 2.85268V21.5989C3.21908 21.8239 3.40166 22.0064 3.62661 22.0064H8.79405C9.11829 22.0064 9.42926 22.1352 9.65854 22.3645C9.88782 22.5938 10.0166 22.9048 10.0166 23.229C10.0166 23.5533 9.88782 23.8642 9.65854 24.0935C9.42926 24.3228 9.11829 24.4516 8.79405 24.4516H3.62661C2.87003 24.4516 2.14444 24.151 1.60946 23.6161C1.07448 23.0811 0.773926 22.3555 0.773926 21.5989V2.85268C0.773926 1.278 2.05193 0 3.62661 0H17.4825C19.0572 0 20.3352 1.278 20.3352 2.85268V15.4632C20.3352 15.7874 20.2064 16.0984 19.9771 16.3277C19.7478 16.557 19.4369 16.6858 19.1126 16.6858C18.7884 16.6858 18.4774 16.557 18.2481 16.3277C18.0188 16.0984 17.89 15.7874 17.89 15.4632V2.85268C17.89 2.7446 17.8471 2.64095 17.7707 2.56452C17.6942 2.48809 17.5906 2.44516 17.4825 2.44516H3.62661C3.51853 2.44516 3.41487 2.48809 3.33845 2.56452C3.26202 2.64095 3.21908 2.7446 3.21908 2.85268ZM24.8571 18.399L17.4287 25.653C17.1981 25.8777 16.8882 26.0024 16.5662 26C16.2442 25.9975 15.9361 25.8681 15.709 25.6399L12.5417 22.4612C12.3261 22.2291 12.2091 21.9223 12.2153 21.6056C12.2215 21.2888 12.3504 20.9869 12.5748 20.7633C12.7992 20.5397 13.1017 20.412 13.4184 20.407C13.7352 20.402 14.0415 20.5202 14.2728 20.7366L16.5859 23.0595L23.1488 16.6499C23.3809 16.4234 23.6936 16.2983 24.0179 16.3023C24.1785 16.3043 24.3372 16.3378 24.4848 16.4011C24.6324 16.4644 24.7661 16.5561 24.8783 16.6711C24.9905 16.786 25.0789 16.922 25.1385 17.0711C25.1982 17.2202 25.2279 17.3796 25.2259 17.5403C25.2239 17.7009 25.1904 17.8595 25.1271 18.0071C25.0638 18.1547 24.9721 18.2885 24.8571 18.4006M6.88682 6.52042H14.2223C14.5465 6.52042 14.8575 6.64923 15.0868 6.87851C15.3161 7.10779 15.4449 7.41875 15.4449 7.743C15.4449 8.06725 15.3161 8.37822 15.0868 8.6075C14.8575 8.83677 14.5465 8.96558 14.2223 8.96558H6.88682C6.56257 8.96558 6.25161 8.83677 6.02233 8.6075C5.79305 8.37822 5.66424 8.06725 5.66424 7.743C5.66424 7.41875 5.79305 7.10779 6.02233 6.87851C6.25161 6.64923 6.56257 6.52042 6.88682 6.52042ZM5.66424 12.6333C5.66424 12.3091 5.79305 11.9981 6.02233 11.7688C6.25161 11.5395 6.56257 11.4107 6.88682 11.4107H10.147C10.4713 11.4107 10.7822 11.5395 11.0115 11.7688C11.2408 11.9981 11.3696 12.3091 11.3696 12.6333C11.3696 12.9576 11.2408 13.2685 11.0115 13.4978C10.7822 13.7271 10.4713 13.8559 10.147 13.8559H6.88682C6.56257 13.8559 6.25161 13.7271 6.02233 13.4978C5.79305 13.2685 5.66424 12.9576 5.66424 12.6333Z" fill="white"/>
</svg>
