<svg width="27" height="26" viewBox="0 0 27 26" fill="none" xmlns="http://www.w3.org/2000/svg">
<path d="M1.94444 26C1.53519 26 1.19237 25.8613 0.916 25.584C0.63963 25.3067 0.500963 24.9639 0.5 24.5556V21.0528C0.5 20.6676 0.572222 20.3002 0.716667 19.9507C0.861111 19.6011 1.06574 19.2944 1.33056 19.0306L19.5667 0.830556C19.8556 0.565741 20.1748 0.361111 20.5243 0.216667C20.8739 0.0722224 21.2408 0 21.625 0C22.0092 0 22.3824 0.0722224 22.7444 0.216667C23.1065 0.361111 23.4195 0.577778 23.6833 0.866666L25.6694 2.88889C25.9583 3.1537 26.1687 3.46667 26.3007 3.82778C26.4326 4.18889 26.499 4.55 26.5 4.91111C26.5 5.2963 26.4336 5.66367 26.3007 6.01322C26.1678 6.36278 25.9574 6.68152 25.6694 6.96944L7.46944 25.1694C7.20463 25.4343 6.89744 25.6389 6.54789 25.7833C6.19833 25.9278 5.83144 26 5.44722 26H1.94444ZM21.5889 6.93333L23.6111 4.91111L21.5889 2.88889L19.5667 4.91111L21.5889 6.93333Z" fill="#FAFAFA"/>
</svg>
