<svg width="26" height="28" viewBox="0 0 26 28" fill="none" xmlns="http://www.w3.org/2000/svg">
<path fill-rule="evenodd" clip-rule="evenodd" d="M13 0.800781C13.6319 0.800781 14.2529 0.96725 14.8001 1.2832L14.7995 1.28385L23.1999 6.08333L23.4004 6.20768C23.8579 6.51344 24.2398 6.92091 24.5163 7.39909C24.8322 7.94565 24.9994 8.56596 25 9.19726V18.7995C24.9993 19.4307 24.8322 20.0505 24.5163 20.597C24.2004 21.1435 23.7465 21.5978 23.1999 21.9134L14.7956 26.7161L14.7949 26.7155C14.2846 27.009 13.7108 27.1712 13.1237 27.1914C13.083 27.1956 13.0418 27.1986 13 27.1986C12.958 27.1986 12.9165 27.1956 12.8757 27.1914C12.2886 27.1711 11.7146 27.0091 11.2044 26.7155L2.80013 21.9134C2.25345 21.5978 1.79898 21.1435 1.48307 20.597C1.1673 20.0506 1.00066 19.4306 1 18.7995V9.19726L1.00846 8.96094C1.04512 8.41197 1.20671 7.87726 1.48307 7.39909C1.79899 6.85262 2.25349 6.39895 2.80013 6.08333L11.1999 1.28385C11.7471 0.967901 12.3681 0.800781 13 0.800781ZM3.39974 18.7975L3.40299 18.8757C3.41521 19.0586 3.46909 19.2371 3.5612 19.3965C3.66643 19.5784 3.81737 19.7301 3.99935 19.8353L11.8001 24.2923V14.6927L3.39974 9.87044V18.7975ZM19.0612 11.9023C19.017 11.9315 18.9712 11.9582 18.9238 11.9811L14.1999 14.6927V24.2923L22 19.8353C22.1821 19.7301 22.3335 19.5785 22.4388 19.3965C22.5438 19.2147 22.5998 19.0081 22.6003 18.7982V9.87044L19.0612 11.9023ZM4.6224 7.80534L13 12.6146L15.9831 10.9017L7.59896 6.10482L4.6224 7.80534ZM13 3.20052C12.7894 3.20052 12.5821 3.25604 12.3997 3.36133L12.3952 3.36458L10.0176 4.72266L18.3952 9.51693L21.377 7.80534L13.6048 3.36458L13.6003 3.36133C13.4179 3.25604 13.2106 3.20052 13 3.20052Z" fill="white"/>
</svg>
