<svg width="26" height="26" viewBox="0 0 26 26" fill="none" xmlns="http://www.w3.org/2000/svg">
<path d="M1.2998 0H3.8998V2.6H6.4998V5.2H3.8998V23.4H22.0998V5.2H19.4998V2.6H22.0998V0H24.6998V26H1.2998V0ZM16.8998 2.6V0H19.4998V2.6H16.8998ZM14.2998 2.6H16.8998V5.2H14.2998V2.6ZM11.6998 2.6V0H14.2998V2.6H11.6998ZM9.0998 2.6H11.6998V5.2H9.0998V2.6ZM9.0998 2.6V0H6.4998V2.6H9.0998ZM19.4998 7.8H6.4998V10.4H19.4998V7.8ZM6.4998 13H19.4998V15.6H6.4998V13ZM19.4998 20.8V18.2H14.2998V20.8H19.4998Z" fill="white"/>
</svg>
