<svg width="26" height="26" viewBox="0 0 26 26" fill="none" xmlns="http://www.w3.org/2000/svg">
<path d="M13.1236 16.4162V7.14096H9.71419V16.4145C8.51834 17.035 7.69071 18.2726 7.69071 19.7131C7.70541 20.6924 8.10474 21.6267 8.80245 22.3141C9.50017 23.0015 10.4403 23.3869 11.4197 23.387C12.3992 23.3871 13.3394 23.002 14.0373 22.3147C14.7351 21.6275 15.1347 20.6933 15.1496 19.7139C15.1496 18.2735 14.3228 17.0359 13.1244 16.4171L13.1236 16.4162ZM15.6806 4.26174C15.6806 1.91267 13.768 0 11.4189 0C9.06981 0 7.15715 1.91352 7.15715 4.26174V15.1096C6.51806 15.6937 6.00792 16.4048 5.65935 17.1973C5.31077 17.9899 5.13144 18.8464 5.13282 19.7122C5.13282 23.1779 7.95409 26 11.4197 26C14.8854 26 17.7058 23.1787 17.7058 19.7122C17.7058 17.9342 16.9574 16.2773 15.6815 15.1079V4.26344L15.6806 4.26174ZM16.0002 19.7148C15.9984 20.9291 15.5151 22.093 14.6562 22.9514C13.7974 23.8098 12.6331 24.2925 11.4189 24.2936C10.2048 24.292 9.04083 23.809 8.18231 22.9505C7.3238 22.092 6.8408 20.9281 6.83922 19.7139C6.83922 18.184 7.60292 16.7793 8.8644 15.9312V4.26344C8.8644 2.85451 10.0091 1.7064 11.4189 1.7064C12.8287 1.7064 13.9759 2.85366 13.9759 4.26344V15.9321C14.5987 16.347 15.1094 16.9093 15.4625 17.569C15.8157 18.2288 16.0004 18.9665 16.0002 19.7148ZM17.0316 7.14096L20.8671 9.35536V4.92827L17.0316 7.14096Z" fill="#050C1F"/>
</svg>
